<svg xmlns="http://www.w3.org/2000/svg" viewBox="0 0 600 200" width="600" height="200">
  <rect width="600" height="200" fill="#0B0B0C"/>

  <!-- A-v3 · HALO — anel simples + traços curtos (símbolo de controle/foco) -->
  <!-- Single bold ring around tip, 8 evenly-spaced short tick marks outside it. -->
  <g transform="translate(110,100)">
    <g fill="none" stroke="#C9A961" stroke-linecap="round">
      <!-- Bold central ring -->
      <circle cx="30" cy="-50" r="18" stroke-width="2.8" opacity="1.00"/>

      <!-- 8 radial ticks outside the ring (skip the baton direction) -->
      <g transform="translate(30,-50)">
        <line x1="26"     y1="0"     x2="34"     y2="0"      stroke-width="2.4"/>   <!-- 0° -->
        <line x1="18.38"  y1="-18.38" x2="24.04" y2="-24.04" stroke-width="2.4"/>   <!-- 45° -->
        <line x1="0"      y1="-26"   x2="0"      y2="-34"    stroke-width="2.4"/>   <!-- 90° -->
        <line x1="-18.38" y1="-18.38" x2="-24.04" y2="-24.04" stroke-width="2.4"/>  <!-- 135° -->
        <line x1="-26"    y1="0"     x2="-34"    y2="0"      stroke-width="2.4"/>   <!-- 180° -->
        <!-- skip 225° (baton) -->
        <line x1="0"      y1="26"    x2="0"      y2="34"     stroke-width="2.4"/>   <!-- 270° -->
        <line x1="18.38"  y1="18.38" x2="24.04"  y2="24.04"  stroke-width="2.4"/>   <!-- 315° -->
      </g>
    </g>

    <line x1="-50" y1="35" x2="30" y2="-50" stroke="#F5F3EF" stroke-width="9" stroke-linecap="round"/>
    <line x1="-44" y1="28" x2="-28" y2="11" stroke="#C9A961" stroke-width="10" stroke-linecap="round"/>
    <circle cx="-50" cy="35" r="11" fill="#F5F3EF"/>
    <circle cx="-50" cy="35" r="5"  fill="#C9A961"/>
    <circle cx="30" cy="-50" r="7" fill="#C9A961"/>
    <circle cx="30" cy="-50" r="3" fill="#F5F3EF"/>
  </g>

  <text x="230" y="116" font-family="-apple-system, 'Inter', sans-serif"
        font-weight="600" font-size="46" letter-spacing="8" fill="#F5F3EF">ORKESTRA</text>
  <text x="230" y="140" font-family="-apple-system, 'Inter', sans-serif"
        font-weight="400" font-size="11" letter-spacing="6" fill="#C9A961">ORCHESTRATED OPERATIONS</text>
</svg>
