<svg xmlns="http://www.w3.org/2000/svg" viewBox="0 0 600 200" width="600" height="200">
  <rect width="600" height="200" fill="#0B0B0C"/>

  <!-- SYMBOL: diagonal batuta radiating 4 concentric arcs (full ecosystem) -->
  <g transform="translate(110,100)">
    <!-- Ecosystem arcs: 270° arcs centered on the baton tip (30,-50), opening toward the handle -->
    <g fill="none" stroke="#C9A961" stroke-linecap="round">
      <path d="M 16 -50 A 14 14 0 1 1 30 -36"  stroke-width="3"   opacity="1.00"/>
      <path d="M  6 -50 A 24 24 0 1 1 30 -26"  stroke-width="2.5" opacity="0.65"/>
      <path d="M -6 -50 A 36 36 0 1 1 30 -14"  stroke-width="2.2" opacity="0.38"/>
      <path d="M-18 -50 A 48 48 0 1 1 30  -2"  stroke-width="2"   opacity="0.20"/>
    </g>

    <!-- Baton shaft: thick off-white diagonal -->
    <line x1="-50" y1="35" x2="30" y2="-50" stroke="#F5F3EF" stroke-width="9" stroke-linecap="round"/>

    <!-- Grip band (champagne gold, indicates hand position) -->
    <line x1="-44" y1="28" x2="-28" y2="11" stroke="#C9A961" stroke-width="10" stroke-linecap="round"/>

    <!-- Pommel / handle bulb -->
    <circle cx="-50" cy="35" r="11" fill="#F5F3EF"/>
    <circle cx="-50" cy="35" r="5"  fill="#C9A961"/>

    <!-- Tip: gold bead (source of command / pulse) -->
    <circle cx="30" cy="-50" r="7" fill="#C9A961"/>
    <circle cx="30" cy="-50" r="3" fill="#F5F3EF"/>
  </g>

  <!-- Wordmark -->
  <text x="230" y="116" font-family="-apple-system, 'Inter', 'Helvetica Neue', sans-serif"
        font-weight="600" font-size="46" letter-spacing="8" fill="#F5F3EF">ORKESTRA</text>
  <text x="230" y="140" font-family="-apple-system, 'Inter', sans-serif"
        font-weight="400" font-size="11" letter-spacing="6" fill="#C9A961">ORCHESTRATED OPERATIONS</text>
</svg>
