<svg xmlns="http://www.w3.org/2000/svg" viewBox="0 0 200 200" width="200" height="200">
  <rect width="200" height="200" fill="#0B0B0C"/>

  <!-- Symbol scaled to fill 1:1 canvas (Instagram profile, app icon, avatar) -->
  <g transform="translate(100,100) scale(1.35)">
    <g fill="none" stroke="#C9A961" stroke-linecap="round">
      <path d="M 16 -50 A 14 14 0 1 1 30 -36"  stroke-width="3"   opacity="1.00"/>
      <path d="M  6 -50 A 24 24 0 1 1 30 -26"  stroke-width="2.5" opacity="0.65"/>
      <path d="M -6 -50 A 36 36 0 1 1 30 -14"  stroke-width="2.2" opacity="0.38"/>
      <path d="M-18 -50 A 48 48 0 1 1 30  -2"  stroke-width="2"   opacity="0.20"/>
    </g>
    <line x1="-50" y1="35" x2="30" y2="-50" stroke="#F5F3EF" stroke-width="9" stroke-linecap="round"/>
    <line x1="-44" y1="28" x2="-28" y2="11" stroke="#C9A961" stroke-width="10" stroke-linecap="round"/>
    <circle cx="-50" cy="35" r="11" fill="#F5F3EF"/>
    <circle cx="-50" cy="35" r="5"  fill="#C9A961"/>
    <circle cx="30" cy="-50" r="7" fill="#C9A961"/>
    <circle cx="30" cy="-50" r="3" fill="#F5F3EF"/>
  </g>
</svg>
