<svg xmlns="http://www.w3.org/2000/svg" viewBox="-70 -70 140 140" width="64" height="64">
  <!-- Favicon / app-icon otimizado para 16-64px.
       Sem fold lines (viram sujeira em tamanho pequeno), centro simplificado. -->
  <rect x="-70" y="-70" width="140" height="140" fill="#0B0B0C"/>

  <g fill="#F5F3EF">
    <path d="M -3 -20 C -10 -28 -13 -44 0 -54 C 13 -44 10 -28 3 -20 C 2 -18 -2 -18 -3 -20 Z" transform="rotate(0)"/>
    <path d="M -3 -20 C -10 -28 -13 -44 0 -54 C 13 -44 10 -28 3 -20 C 2 -18 -2 -18 -3 -20 Z" transform="rotate(22.5)"/>
    <path d="M -3 -20 C -10 -28 -13 -44 0 -54 C 13 -44 10 -28 3 -20 C 2 -18 -2 -18 -3 -20 Z" transform="rotate(45)"/>
    <path d="M -3 -20 C -10 -28 -13 -44 0 -54 C 13 -44 10 -28 3 -20 C 2 -18 -2 -18 -3 -20 Z" transform="rotate(67.5)"/>
    <path d="M -3 -20 C -10 -28 -13 -44 0 -54 C 13 -44 10 -28 3 -20 C 2 -18 -2 -18 -3 -20 Z" transform="rotate(90)"/>
    <path d="M -3 -20 C -10 -28 -13 -44 0 -54 C 13 -44 10 -28 3 -20 C 2 -18 -2 -18 -3 -20 Z" transform="rotate(112.5)"/>
    <path d="M -3 -20 C -10 -28 -13 -44 0 -54 C 13 -44 10 -28 3 -20 C 2 -18 -2 -18 -3 -20 Z" transform="rotate(135)"/>
    <path d="M -3 -20 C -10 -28 -13 -44 0 -54 C 13 -44 10 -28 3 -20 C 2 -18 -2 -18 -3 -20 Z" transform="rotate(157.5)"/>
    <path d="M -3 -20 C -10 -28 -13 -44 0 -54 C 13 -44 10 -28 3 -20 C 2 -18 -2 -18 -3 -20 Z" transform="rotate(180)"/>
    <path d="M -3 -20 C -10 -28 -13 -44 0 -54 C 13 -44 10 -28 3 -20 C 2 -18 -2 -18 -3 -20 Z" transform="rotate(202.5)"/>
    <path d="M -3 -20 C -10 -28 -13 -44 0 -54 C 13 -44 10 -28 3 -20 C 2 -18 -2 -18 -3 -20 Z" transform="rotate(225)"/>
    <path d="M -3 -20 C -10 -28 -13 -44 0 -54 C 13 -44 10 -28 3 -20 C 2 -18 -2 -18 -3 -20 Z" transform="rotate(247.5)"/>
    <path d="M -3 -20 C -10 -28 -13 -44 0 -54 C 13 -44 10 -28 3 -20 C 2 -18 -2 -18 -3 -20 Z" transform="rotate(270)"/>
    <path d="M -3 -20 C -10 -28 -13 -44 0 -54 C 13 -44 10 -28 3 -20 C 2 -18 -2 -18 -3 -20 Z" transform="rotate(292.5)"/>
    <path d="M -3 -20 C -10 -28 -13 -44 0 -54 C 13 -44 10 -28 3 -20 C 2 -18 -2 -18 -3 -20 Z" transform="rotate(315)"/>
    <path d="M -3 -20 C -10 -28 -13 -44 0 -54 C 13 -44 10 -28 3 -20 C 2 -18 -2 -18 -3 -20 Z" transform="rotate(337.5)"/>
  </g>

  <circle r="20" fill="#F5F3EF"/>
  <circle r="14" fill="#0B0B0C"/>
  <circle r="8"  fill="#F5F3EF"/>
</svg>
